# xmcd
#
# Track frame offsets:
#	150
#	20258
#	37823
#	58091
#	75436
#	93974
#	109324
#	127340
#	139687
#	158084
#	177260
#	194455
#
# Disc length: 3052 seconds
#
# Revision: 0
# Processed by: cddbd v1.5.2PL0 Copyright (c) Steve Scherf et al.
# Submitted via: EZCDAudioConverter 2.1.7.1
#
DISCID=990bea0c
DTITLE=Richard Thompson - Still
DYEAR=1900
DGENRE=
TTITLE0=She Never Could Resist A Winding Road
TTITLE1=Beatnik Walking
TTITLE2=Patty Don't You Put Me Down
TTITLE3=Broken Doll
TTITLE4=All Buttoned Up
TTITLE5=Josephine
TTITLE6=Long John Silver
TTITLE7=Pony In The Stable
TTITLE8=Where's Your Heart
TTITLE9=No Peace, No End
TTITLE10=Dungeons For Eyes
TTITLE11=Guitar Heroes
EXTD=
EXTT0=
EXTT1=
EXTT2=
EXTT3=
EXTT4=
EXTT5=
EXTT6=
EXTT7=
EXTT8=
EXTT9=
EXTT10=
EXTT11=
PLAYORDER=
